<?xml version="1.0" encoding="utf-8"?>
<!-- Generator: Adobe Illustrator 16.0.0, SVG Export Plug-In . SVG Version: 6.00 Build 0)  -->
<!DOCTYPE svg PUBLIC "-//W3C//DTD SVG 1.1//EN" "http://www.w3.org/Graphics/SVG/1.1/DTD/svg11.dtd">
<svg version="1.1" id="Layer_1" xmlns="http://www.w3.org/2000/svg" xmlns:xlink="http://www.w3.org/1999/xlink" x="0px" y="0px"
	 width="24.128px" height="16px" viewBox="0 0 24.128 16" enable-background="new 0 0 24.128 16" xml:space="preserve">
<g>
	<path fill-rule="evenodd" clip-rule="evenodd" fill="#FFFFFF" d="M0,16C0,10.666,0,5.349,0,0.019c8.044,0,16.079,0,24.128,0
		c0,5.32,0,10.643,0,15.981C16.093,16,8.055,16,0,16z M12.067,9.894c3.297-2.895,6.575-5.773,9.891-8.686c-6.611,0-13.167,0-19.78,0
		C5.494,4.12,8.771,6.999,12.067,9.894z M21.903,14.819c0.007-0.013,0.014-0.027,0.02-0.041c-2.268-1.991-4.535-3.982-6.808-5.979
		c-1.024,0.898-2.033,1.784-3.048,2.674c-1.026-0.9-2.035-1.786-3.046-2.674c-2.284,2.006-4.549,3.996-6.854,6.021
		C8.791,14.819,15.347,14.819,21.903,14.819z M8.122,8.008C5.808,5.976,3.51,3.958,1.189,1.92c0,4.076,0,8.103,0,12.176
		C3.514,12.054,5.81,10.039,8.122,8.008z M16.013,8.009c2.313,2.03,4.61,4.047,6.933,6.087c0-4.081,0-8.108,0-12.175
		C20.623,3.96,18.327,5.977,16.013,8.009z"/>
</g>
</svg>
