<?xml version="1.0" encoding="utf-8"?>
<!-- Generator: Adobe Illustrator 16.0.0, SVG Export Plug-In . SVG Version: 6.00 Build 0)  -->
<!DOCTYPE svg PUBLIC "-//W3C//DTD SVG 1.1//EN" "http://www.w3.org/Graphics/SVG/1.1/DTD/svg11.dtd">
<svg version="1.1" id="Layer_1" xmlns="http://www.w3.org/2000/svg" xmlns:xlink="http://www.w3.org/1999/xlink" x="0px" y="0px"
	 width="18.762px" height="16px" viewBox="0 0 18.762 16" enable-background="new 0 0 18.762 16" xml:space="preserve">
<g>
	<path fill-rule="evenodd" clip-rule="evenodd" fill="#FFFFFF" d="M0,9.166C0,8.8,0,8.434,0,8.067
		c0.011-0.072,0.025-0.143,0.033-0.214C0.139,6.749,0.53,5.757,1.237,4.9c0.178-0.216,0.271-0.404,0.24-0.707
		C1.385,3.281,1.518,2.378,1.729,1.49C1.845,1.001,2.009,0.523,2.162,0c0.492,0.15,0.952,0.268,1.396,0.431
		c1.112,0.407,2.135,0.984,3.12,1.635c0.076,0.05,0.19,0.07,0.282,0.06c0.4-0.044,0.795-0.128,1.195-0.157
		c1.221-0.088,2.439-0.079,3.648,0.157c0.087,0.017,0.206-0.01,0.281-0.061c0.985-0.649,2.009-1.228,3.119-1.634
		c0.449-0.164,0.913-0.282,1.369-0.421c0.368,0.935,0.595,1.852,0.681,2.796c0.044,0.479,0.066,0.966,0.025,1.443
		c-0.021,0.266,0.061,0.425,0.213,0.609c0.531,0.636,0.912,1.354,1.092,2.168c0.075,0.344,0.119,0.693,0.178,1.042
		c0,0.366,0,0.732,0,1.099c-0.01,0.059-0.028,0.117-0.032,0.177c-0.042,0.66-0.146,1.308-0.332,1.943
		c-0.641,2.193-2.076,3.594-4.248,4.258c-0.989,0.302-2.007,0.403-3.037,0.402c-1.154-0.001-2.309,0-3.462-0.001
		c-0.895,0-1.78-0.072-2.649-0.295c-1.02-0.26-1.958-0.677-2.764-1.367c-1.219-1.044-1.83-2.41-2.091-3.959
		C0.082,9.94,0.048,9.553,0,9.166z M9.388,15.053c0.653-0.021,1.308-0.028,1.96-0.067c0.792-0.049,1.579-0.158,2.338-0.408
		c0.7-0.232,1.356-0.56,1.799-1.168c0.845-1.161,1.002-2.461,0.519-3.788c-0.395-1.088-1.222-1.75-2.402-1.836
		c-0.704-0.051-1.417-0.028-2.122,0.014c-1.226,0.072-2.45,0.12-3.678,0.029C6.924,7.763,6.047,7.678,5.166,7.773
		C3.98,7.901,3.2,8.557,2.741,9.63c-0.28,0.657-0.262,1.348-0.171,2.036c0.149,1.142,0.689,2.028,1.73,2.58
		c0.535,0.284,1.105,0.451,1.694,0.563C7.116,15.022,8.252,15.037,9.388,15.053z"/>
	<path fill-rule="evenodd" clip-rule="evenodd" fill="#FFFFFF" d="M13.938,11.297c-0.016,0.399-0.129,0.768-0.343,1.104
		c-0.461,0.73-1.272,0.794-1.838,0.144c-0.607-0.7-0.604-2.074,0.008-2.771c0.557-0.635,1.354-0.577,1.817,0.131
		C13.86,10.328,13.961,10.797,13.938,11.297z"/>
	<path fill-rule="evenodd" clip-rule="evenodd" fill="#FFFFFF" d="M4.827,11.032c0.013-0.386,0.118-0.743,0.32-1.074
		C5.62,9.182,6.465,9.121,7.04,9.824c0.574,0.702,0.554,2.044-0.044,2.729c-0.552,0.636-1.351,0.578-1.816-0.129
		C4.917,12.024,4.785,11.505,4.827,11.032z"/>
</g>
</svg>
