<?xml version="1.0" encoding="utf-8"?>
<!-- Generator: Adobe Illustrator 16.0.0, SVG Export Plug-In . SVG Version: 6.00 Build 0)  -->
<!DOCTYPE svg PUBLIC "-//W3C//DTD SVG 1.1//EN" "http://www.w3.org/Graphics/SVG/1.1/DTD/svg11.dtd">
<svg version="1.1" id="Layer_1" xmlns="http://www.w3.org/2000/svg" xmlns:xlink="http://www.w3.org/1999/xlink" x="0px" y="0px"
	 width="15.99px" height="16px" viewBox="0 0 15.99 16" enable-background="new 0 0 15.99 16" xml:space="preserve">
<g>
	<path fill="#FFFFFF" d="M7.996,0c-4.418,0-8,3.582-8,8c0,4.418,3.582,8,8,8c4.417,0,7.999-3.581,7.999-8
		C15.995,3.582,12.413,0,7.996,0z M7.996,14.367c-3.517,0-6.367-2.852-6.367-6.368s2.85-6.367,6.367-6.367
		c3.516,0,6.367,2.851,6.367,6.367S11.511,14.367,7.996,14.367z"/>
	<path fill="#FFFFFF" d="M10.24,8.979C9.862,9.844,9,10.448,7.996,10.448c-1.353,0-2.449-1.097-2.449-2.449s1.097-2.449,2.449-2.449
		c0.972,0,1.812,0.566,2.207,1.388h2.155C11.88,4.971,10.109,3.51,7.996,3.51c-2.479,0-4.49,2.011-4.49,4.49s2.011,4.49,4.49,4.49
		c2.143,0,3.934-1.502,4.38-3.51H10.24z"/>
</g>
</svg>
